<svg width="309" height="214" viewBox="0 0 309 214" fill="none" xmlns="http://www.w3.org/2000/svg">
<g filter="url(#filter0_d_4_74)">
<path d="M111.922 94.542H104.694L103.498 98H99.676L106.202 79.826H110.44L116.966 98H113.118L111.922 94.542ZM110.934 91.63L108.308 84.038L105.682 91.63H110.934ZM132.639 85.468C132.639 86.4387 132.405 87.3487 131.937 88.198C131.487 89.0473 130.767 89.732 129.779 90.252C128.809 90.772 127.578 91.032 126.087 91.032H123.045V98H119.405V79.852H126.087C127.491 79.852 128.687 80.0947 129.675 80.58C130.663 81.0653 131.4 81.7327 131.885 82.582C132.388 83.4313 132.639 84.3933 132.639 85.468ZM125.931 88.094C126.937 88.094 127.682 87.8687 128.167 87.418C128.653 86.95 128.895 86.3 128.895 85.468C128.895 83.7 127.907 82.816 125.931 82.816H123.045V88.094H125.931ZM138.864 82.79V87.34H144.974V90.226H138.864V95.036H145.754V98H135.224V79.826H145.754V82.79H138.864ZM159.93 98L156.004 91.89L152.442 98H148.334L154.054 88.848L148.256 79.852H152.442L156.368 85.936L159.904 79.852H164.012L158.318 88.978L164.116 98H159.93ZM179.236 79.852V82.79H174.4V98H170.76V82.79H165.924V79.852H179.236ZM190.316 98.182C188.617 98.182 187.057 97.7833 185.636 96.986C184.214 96.1887 183.088 95.088 182.256 93.684C181.424 92.2627 181.008 90.6593 181.008 88.874C181.008 87.106 181.424 85.52 182.256 84.116C183.088 82.6947 184.214 81.5853 185.636 80.788C187.057 79.9907 188.617 79.592 190.316 79.592C192.032 79.592 193.592 79.9907 194.996 80.788C196.417 81.5853 197.535 82.6947 198.35 84.116C199.182 85.52 199.598 87.106 199.598 88.874C199.598 90.6593 199.182 92.2627 198.35 93.684C197.535 95.088 196.417 96.1887 194.996 96.986C193.574 97.7833 192.014 98.182 190.316 98.182ZM190.316 94.932C191.408 94.932 192.37 94.6893 193.202 94.204C194.034 93.7013 194.684 92.9907 195.152 92.072C195.62 91.1533 195.854 90.0873 195.854 88.874C195.854 87.6607 195.62 86.6033 195.152 85.702C194.684 84.7833 194.034 84.0813 193.202 83.596C192.37 83.1107 191.408 82.868 190.316 82.868C189.224 82.868 188.253 83.1107 187.404 83.596C186.572 84.0813 185.922 84.7833 185.454 85.702C184.986 86.6033 184.752 87.6607 184.752 88.874C184.752 90.0873 184.986 91.1533 185.454 92.072C185.922 92.9907 186.572 93.7013 187.404 94.204C188.253 94.6893 189.224 94.932 190.316 94.932ZM205.894 79.852V91.084C205.894 92.3147 206.214 93.2593 206.856 93.918C207.497 94.5593 208.398 94.88 209.56 94.88C210.738 94.88 211.648 94.5593 212.29 93.918C212.931 93.2593 213.252 92.3147 213.252 91.084V79.852H216.918V91.058C216.918 92.6007 216.58 93.9093 215.904 94.984C215.245 96.0413 214.352 96.8387 213.226 97.376C212.116 97.9133 210.877 98.182 209.508 98.182C208.156 98.182 206.925 97.9133 205.816 97.376C204.724 96.8387 203.857 96.0413 203.216 94.984C202.574 93.9093 202.254 92.6007 202.254 91.058V79.852H205.894ZM219.551 88.9C219.551 87.1147 219.949 85.52 220.747 84.116C221.561 82.6947 222.662 81.594 224.049 80.814C225.453 80.0167 227.021 79.618 228.755 79.618C230.783 79.618 232.559 80.138 234.085 81.178C235.61 82.218 236.676 83.6567 237.283 85.494H233.097C232.681 84.6273 232.091 83.9773 231.329 83.544C230.583 83.1107 229.717 82.894 228.729 82.894C227.671 82.894 226.727 83.1453 225.895 83.648C225.08 84.1333 224.439 84.8267 223.971 85.728C223.52 86.6293 223.295 87.6867 223.295 88.9C223.295 90.096 223.52 91.1533 223.971 92.072C224.439 92.9733 225.08 93.6753 225.895 94.178C226.727 94.6633 227.671 94.906 228.729 94.906C229.717 94.906 230.583 94.6893 231.329 94.256C232.091 93.8053 232.681 93.1467 233.097 92.28H237.283C236.676 94.1347 235.61 95.582 234.085 96.622C232.577 97.6447 230.8 98.156 228.755 98.156C227.021 98.156 225.453 97.766 224.049 96.986C222.662 96.1887 221.561 95.088 220.747 93.684C219.949 92.28 219.551 90.6853 219.551 88.9ZM255.446 79.852V98H251.806V90.278H244.032V98H240.392V79.852H244.032V87.314H251.806V79.852H255.446Z" fill="#20ADE5"/>
<path d="M102.98 112.57C102.52 112.57 102.107 112.49 101.74 112.33C101.38 112.163 101.097 111.937 100.89 111.65C100.683 111.357 100.577 111.02 100.57 110.64H101.54C101.573 110.967 101.707 111.243 101.94 111.47C102.18 111.69 102.527 111.8 102.98 111.8C103.413 111.8 103.753 111.693 104 111.48C104.253 111.26 104.38 110.98 104.38 110.64C104.38 110.373 104.307 110.157 104.16 109.99C104.013 109.823 103.83 109.697 103.61 109.61C103.39 109.523 103.093 109.43 102.72 109.33C102.26 109.21 101.89 109.09 101.61 108.97C101.337 108.85 101.1 108.663 100.9 108.41C100.707 108.15 100.61 107.803 100.61 107.37C100.61 106.99 100.707 106.653 100.9 106.36C101.093 106.067 101.363 105.84 101.71 105.68C102.063 105.52 102.467 105.44 102.92 105.44C103.573 105.44 104.107 105.603 104.52 105.93C104.94 106.257 105.177 106.69 105.23 107.23H104.23C104.197 106.963 104.057 106.73 103.81 106.53C103.563 106.323 103.237 106.22 102.83 106.22C102.45 106.22 102.14 106.32 101.9 106.52C101.66 106.713 101.54 106.987 101.54 107.34C101.54 107.593 101.61 107.8 101.75 107.96C101.897 108.12 102.073 108.243 102.28 108.33C102.493 108.41 102.79 108.503 103.17 108.61C103.63 108.737 104 108.863 104.28 108.99C104.56 109.11 104.8 109.3 105 109.56C105.2 109.813 105.3 110.16 105.3 110.6C105.3 110.94 105.21 111.26 105.03 111.56C104.85 111.86 104.583 112.103 104.23 112.29C103.877 112.477 103.46 112.57 102.98 112.57ZM107.749 107.77V111C107.749 111.267 107.806 111.457 107.919 111.57C108.032 111.677 108.229 111.73 108.509 111.73H109.179V112.5H108.359C107.852 112.5 107.472 112.383 107.219 112.15C106.966 111.917 106.839 111.533 106.839 111V107.77H106.129V107.02H106.839V105.64H107.749V107.02H109.179V107.77H107.749ZM109.942 109.74C109.942 109.18 110.055 108.69 110.282 108.27C110.508 107.843 110.818 107.513 111.212 107.28C111.612 107.047 112.055 106.93 112.542 106.93C113.022 106.93 113.438 107.033 113.792 107.24C114.145 107.447 114.408 107.707 114.582 108.02V107.02H115.502V112.5H114.582V111.48C114.402 111.8 114.132 112.067 113.772 112.28C113.418 112.487 113.005 112.59 112.532 112.59C112.045 112.59 111.605 112.47 111.212 112.23C110.818 111.99 110.508 111.653 110.282 111.22C110.055 110.787 109.942 110.293 109.942 109.74ZM114.582 109.75C114.582 109.337 114.498 108.977 114.332 108.67C114.165 108.363 113.938 108.13 113.652 107.97C113.372 107.803 113.062 107.72 112.722 107.72C112.382 107.72 112.072 107.8 111.792 107.96C111.512 108.12 111.288 108.353 111.122 108.66C110.955 108.967 110.872 109.327 110.872 109.74C110.872 110.16 110.955 110.527 111.122 110.84C111.288 111.147 111.512 111.383 111.792 111.55C112.072 111.71 112.382 111.79 112.722 111.79C113.062 111.79 113.372 111.71 113.652 111.55C113.938 111.383 114.165 111.147 114.332 110.84C114.498 110.527 114.582 110.163 114.582 109.75ZM121.76 107.02L118.46 115.08H117.52L118.6 112.44L116.39 107.02H117.4L119.12 111.46L120.82 107.02H121.76ZM125 109.01C125 108.33 125.154 107.72 125.46 107.18C125.767 106.633 126.184 106.207 126.71 105.9C127.244 105.593 127.834 105.44 128.48 105.44C129.24 105.44 129.904 105.623 130.47 105.99C131.037 106.357 131.45 106.877 131.71 107.55H130.62C130.427 107.13 130.147 106.807 129.78 106.58C129.42 106.353 128.987 106.24 128.48 106.24C127.994 106.24 127.557 106.353 127.17 106.58C126.784 106.807 126.48 107.13 126.26 107.55C126.04 107.963 125.93 108.45 125.93 109.01C125.93 109.563 126.04 110.05 126.26 110.47C126.48 110.883 126.784 111.203 127.17 111.43C127.557 111.657 127.994 111.77 128.48 111.77C128.987 111.77 129.42 111.66 129.78 111.44C130.147 111.213 130.427 110.89 130.62 110.47H131.71C131.45 111.137 131.037 111.653 130.47 112.02C129.904 112.38 129.24 112.56 128.48 112.56C127.834 112.56 127.244 112.41 126.71 112.11C126.184 111.803 125.767 111.38 125.46 110.84C125.154 110.3 125 109.69 125 109.01ZM135.455 112.59C134.942 112.59 134.475 112.473 134.055 112.24C133.642 112.007 133.315 111.677 133.075 111.25C132.842 110.817 132.725 110.317 132.725 109.75C132.725 109.19 132.845 108.697 133.085 108.27C133.332 107.837 133.665 107.507 134.085 107.28C134.505 107.047 134.975 106.93 135.495 106.93C136.015 106.93 136.485 107.047 136.905 107.28C137.325 107.507 137.655 107.833 137.895 108.26C138.142 108.687 138.265 109.183 138.265 109.75C138.265 110.317 138.138 110.817 137.885 111.25C137.638 111.677 137.302 112.007 136.875 112.24C136.448 112.473 135.975 112.59 135.455 112.59ZM135.455 111.79C135.782 111.79 136.088 111.713 136.375 111.56C136.662 111.407 136.892 111.177 137.065 110.87C137.245 110.563 137.335 110.19 137.335 109.75C137.335 109.31 137.248 108.937 137.075 108.63C136.902 108.323 136.675 108.097 136.395 107.95C136.115 107.797 135.812 107.72 135.485 107.72C135.152 107.72 134.845 107.797 134.565 107.95C134.292 108.097 134.072 108.323 133.905 108.63C133.738 108.937 133.655 109.31 133.655 109.75C133.655 110.197 133.735 110.573 133.895 110.88C134.062 111.187 134.282 111.417 134.555 111.57C134.828 111.717 135.128 111.79 135.455 111.79ZM142.131 106.92C142.798 106.92 143.338 107.123 143.751 107.53C144.165 107.93 144.371 108.51 144.371 109.27V112.5H143.471V109.4C143.471 108.853 143.335 108.437 143.061 108.15C142.788 107.857 142.415 107.71 141.941 107.71C141.461 107.71 141.078 107.86 140.791 108.16C140.511 108.46 140.371 108.897 140.371 109.47V112.5H139.461V107.02H140.371V107.8C140.551 107.52 140.795 107.303 141.101 107.15C141.415 106.997 141.758 106.92 142.131 106.92ZM148.528 106.92C149.195 106.92 149.735 107.123 150.148 107.53C150.561 107.93 150.768 108.51 150.768 109.27V112.5H149.868V109.4C149.868 108.853 149.731 108.437 149.458 108.15C149.185 107.857 148.811 107.71 148.338 107.71C147.858 107.71 147.475 107.86 147.188 108.16C146.908 108.46 146.768 108.897 146.768 109.47V112.5H145.858V107.02H146.768V107.8C146.948 107.52 147.191 107.303 147.498 107.15C147.811 106.997 148.155 106.92 148.528 106.92ZM157.254 109.55C157.254 109.723 157.244 109.907 157.224 110.1H152.844C152.878 110.64 153.061 111.063 153.394 111.37C153.734 111.67 154.144 111.82 154.624 111.82C155.018 111.82 155.344 111.73 155.604 111.55C155.871 111.363 156.058 111.117 156.164 110.81H157.144C156.998 111.337 156.704 111.767 156.264 112.1C155.824 112.427 155.278 112.59 154.624 112.59C154.104 112.59 153.638 112.473 153.224 112.24C152.818 112.007 152.498 111.677 152.264 111.25C152.031 110.817 151.914 110.317 151.914 109.75C151.914 109.183 152.028 108.687 152.254 108.26C152.481 107.833 152.798 107.507 153.204 107.28C153.618 107.047 154.091 106.93 154.624 106.93C155.144 106.93 155.604 107.043 156.004 107.27C156.404 107.497 156.711 107.81 156.924 108.21C157.144 108.603 157.254 109.05 157.254 109.55ZM156.314 109.36C156.314 109.013 156.238 108.717 156.084 108.47C155.931 108.217 155.721 108.027 155.454 107.9C155.194 107.767 154.904 107.7 154.584 107.7C154.124 107.7 153.731 107.847 153.404 108.14C153.084 108.433 152.901 108.84 152.854 109.36H156.314ZM158.116 109.75C158.116 109.183 158.229 108.69 158.456 108.27C158.682 107.843 158.996 107.513 159.396 107.28C159.802 107.047 160.266 106.93 160.786 106.93C161.459 106.93 162.012 107.093 162.446 107.42C162.886 107.747 163.176 108.2 163.316 108.78H162.336C162.242 108.447 162.059 108.183 161.786 107.99C161.519 107.797 161.186 107.7 160.786 107.7C160.266 107.7 159.846 107.88 159.526 108.24C159.206 108.593 159.046 109.097 159.046 109.75C159.046 110.41 159.206 110.92 159.526 111.28C159.846 111.64 160.266 111.82 160.786 111.82C161.186 111.82 161.519 111.727 161.786 111.54C162.052 111.353 162.236 111.087 162.336 110.74H163.316C163.169 111.3 162.876 111.75 162.436 112.09C161.996 112.423 161.446 112.59 160.786 112.59C160.266 112.59 159.802 112.473 159.396 112.24C158.996 112.007 158.682 111.677 158.456 111.25C158.229 110.823 158.116 110.323 158.116 109.75ZM165.64 107.77V111C165.64 111.267 165.696 111.457 165.81 111.57C165.923 111.677 166.12 111.73 166.4 111.73H167.07V112.5H166.25C165.743 112.5 165.363 112.383 165.11 112.15C164.856 111.917 164.73 111.533 164.73 111V107.77H164.02V107.02H164.73V105.64H165.64V107.02H167.07V107.77H165.64ZM173.172 109.55C173.172 109.723 173.162 109.907 173.142 110.1H168.762C168.796 110.64 168.979 111.063 169.312 111.37C169.652 111.67 170.062 111.82 170.542 111.82C170.936 111.82 171.262 111.73 171.522 111.55C171.789 111.363 171.976 111.117 172.082 110.81H173.062C172.916 111.337 172.622 111.767 172.182 112.1C171.742 112.427 171.196 112.59 170.542 112.59C170.022 112.59 169.556 112.473 169.142 112.24C168.736 112.007 168.416 111.677 168.182 111.25C167.949 110.817 167.832 110.317 167.832 109.75C167.832 109.183 167.946 108.687 168.172 108.26C168.399 107.833 168.716 107.507 169.122 107.28C169.536 107.047 170.009 106.93 170.542 106.93C171.062 106.93 171.522 107.043 171.922 107.27C172.322 107.497 172.629 107.81 172.842 108.21C173.062 108.603 173.172 109.05 173.172 109.55ZM172.232 109.36C172.232 109.013 172.156 108.717 172.002 108.47C171.849 108.217 171.639 108.027 171.372 107.9C171.112 107.767 170.822 107.7 170.502 107.7C170.042 107.7 169.649 107.847 169.322 108.14C169.002 108.433 168.819 108.84 168.772 109.36H172.232ZM174.034 109.74C174.034 109.18 174.147 108.69 174.374 108.27C174.6 107.843 174.91 107.513 175.304 107.28C175.704 107.047 176.15 106.93 176.644 106.93C177.07 106.93 177.467 107.03 177.834 107.23C178.2 107.423 178.48 107.68 178.674 108V105.1H179.594V112.5H178.674V111.47C178.494 111.797 178.227 112.067 177.874 112.28C177.52 112.487 177.107 112.59 176.634 112.59C176.147 112.59 175.704 112.47 175.304 112.23C174.91 111.99 174.6 111.653 174.374 111.22C174.147 110.787 174.034 110.293 174.034 109.74ZM178.674 109.75C178.674 109.337 178.59 108.977 178.424 108.67C178.257 108.363 178.03 108.13 177.744 107.97C177.464 107.803 177.154 107.72 176.814 107.72C176.474 107.72 176.164 107.8 175.884 107.96C175.604 108.12 175.38 108.353 175.214 108.66C175.047 108.967 174.964 109.327 174.964 109.74C174.964 110.16 175.047 110.527 175.214 110.84C175.38 111.147 175.604 111.383 175.884 111.55C176.164 111.71 176.474 111.79 176.814 111.79C177.154 111.79 177.464 111.71 177.744 111.55C178.03 111.383 178.257 111.147 178.424 110.84C178.59 110.527 178.674 110.163 178.674 109.75ZM183.457 109.74C183.457 109.18 183.571 108.69 183.797 108.27C184.024 107.843 184.334 107.513 184.727 107.28C185.127 107.047 185.571 106.93 186.057 106.93C186.537 106.93 186.954 107.033 187.307 107.24C187.661 107.447 187.924 107.707 188.097 108.02V107.02H189.017V112.5H188.097V111.48C187.917 111.8 187.647 112.067 187.287 112.28C186.934 112.487 186.521 112.59 186.047 112.59C185.561 112.59 185.121 112.47 184.727 112.23C184.334 111.99 184.024 111.653 183.797 111.22C183.571 110.787 183.457 110.293 183.457 109.74ZM188.097 109.75C188.097 109.337 188.014 108.977 187.847 108.67C187.681 108.363 187.454 108.13 187.167 107.97C186.887 107.803 186.577 107.72 186.237 107.72C185.897 107.72 185.587 107.8 185.307 107.96C185.027 108.12 184.804 108.353 184.637 108.66C184.471 108.967 184.387 109.327 184.387 109.74C184.387 110.16 184.471 110.527 184.637 110.84C184.804 111.147 185.027 111.383 185.307 111.55C185.587 111.71 185.897 111.79 186.237 111.79C186.577 111.79 186.887 111.71 187.167 111.55C187.454 111.383 187.681 111.147 187.847 110.84C188.014 110.527 188.097 110.163 188.097 109.75ZM193.225 106.92C193.892 106.92 194.432 107.123 194.845 107.53C195.258 107.93 195.465 108.51 195.465 109.27V112.5H194.565V109.4C194.565 108.853 194.428 108.437 194.155 108.15C193.882 107.857 193.508 107.71 193.035 107.71C192.555 107.71 192.172 107.86 191.885 108.16C191.605 108.46 191.465 108.897 191.465 109.47V112.5H190.555V107.02H191.465V107.8C191.645 107.52 191.888 107.303 192.195 107.15C192.508 106.997 192.852 106.92 193.225 106.92ZM196.612 109.74C196.612 109.18 196.725 108.69 196.952 108.27C197.178 107.843 197.488 107.513 197.882 107.28C198.282 107.047 198.728 106.93 199.222 106.93C199.648 106.93 200.045 107.03 200.412 107.23C200.778 107.423 201.058 107.68 201.252 108V105.1H202.172V112.5H201.252V111.47C201.072 111.797 200.805 112.067 200.452 112.28C200.098 112.487 199.685 112.59 199.212 112.59C198.725 112.59 198.282 112.47 197.882 112.23C197.488 111.99 197.178 111.653 196.952 111.22C196.725 110.787 196.612 110.293 196.612 109.74ZM201.252 109.75C201.252 109.337 201.168 108.977 201.002 108.67C200.835 108.363 200.608 108.13 200.322 107.97C200.042 107.803 199.732 107.72 199.392 107.72C199.052 107.72 198.742 107.8 198.462 107.96C198.182 108.12 197.958 108.353 197.792 108.66C197.625 108.967 197.542 109.327 197.542 109.74C197.542 110.16 197.625 110.527 197.792 110.84C197.958 111.147 198.182 111.383 198.462 111.55C198.742 111.71 199.052 111.79 199.392 111.79C199.732 111.79 200.042 111.71 200.322 111.55C200.608 111.383 200.835 111.147 201.002 110.84C201.168 110.527 201.252 110.163 201.252 109.75ZM207.285 105.53V112.5H206.375V105.53H207.285ZM211.506 106.92C212.173 106.92 212.713 107.123 213.126 107.53C213.54 107.93 213.746 108.51 213.746 109.27V112.5H212.846V109.4C212.846 108.853 212.71 108.437 212.436 108.15C212.163 107.857 211.79 107.71 211.316 107.71C210.836 107.71 210.453 107.86 210.166 108.16C209.886 108.46 209.746 108.897 209.746 109.47V112.5H208.836V107.02H209.746V107.8C209.926 107.52 210.17 107.303 210.476 107.15C210.79 106.997 211.133 106.92 211.506 106.92ZM217.463 107.77H216.313V112.5H215.403V107.77H214.693V107.02H215.403V106.63C215.403 106.017 215.56 105.57 215.873 105.29C216.193 105.003 216.703 104.86 217.403 104.86V105.62C217.003 105.62 216.72 105.7 216.553 105.86C216.393 106.013 216.313 106.27 216.313 106.63V107.02H217.463V107.77ZM220.914 112.59C220.401 112.59 219.934 112.473 219.514 112.24C219.101 112.007 218.774 111.677 218.534 111.25C218.301 110.817 218.184 110.317 218.184 109.75C218.184 109.19 218.304 108.697 218.544 108.27C218.791 107.837 219.124 107.507 219.544 107.28C219.964 107.047 220.434 106.93 220.954 106.93C221.474 106.93 221.944 107.047 222.364 107.28C222.784 107.507 223.114 107.833 223.354 108.26C223.601 108.687 223.724 109.183 223.724 109.75C223.724 110.317 223.597 110.817 223.344 111.25C223.097 111.677 222.761 112.007 222.334 112.24C221.907 112.473 221.434 112.59 220.914 112.59ZM220.914 111.79C221.241 111.79 221.547 111.713 221.834 111.56C222.121 111.407 222.351 111.177 222.524 110.87C222.704 110.563 222.794 110.19 222.794 109.75C222.794 109.31 222.707 108.937 222.534 108.63C222.361 108.323 222.134 108.097 221.854 107.95C221.574 107.797 221.271 107.72 220.944 107.72C220.611 107.72 220.304 107.797 220.024 107.95C219.751 108.097 219.531 108.323 219.364 108.63C219.197 108.937 219.114 109.31 219.114 109.75C219.114 110.197 219.194 110.573 219.354 110.88C219.521 111.187 219.741 111.417 220.014 111.57C220.287 111.717 220.587 111.79 220.914 111.79ZM225.83 107.91C225.99 107.597 226.217 107.353 226.51 107.18C226.81 107.007 227.174 106.92 227.6 106.92V107.86H227.36C226.34 107.86 225.83 108.413 225.83 109.52V112.5H224.92V107.02H225.83V107.91ZM235.241 106.92C235.668 106.92 236.048 107.01 236.381 107.19C236.714 107.363 236.978 107.627 237.171 107.98C237.364 108.333 237.461 108.763 237.461 109.27V112.5H236.561V109.4C236.561 108.853 236.424 108.437 236.151 108.15C235.884 107.857 235.521 107.71 235.061 107.71C234.588 107.71 234.211 107.863 233.931 108.17C233.651 108.47 233.511 108.907 233.511 109.48V112.5H232.611V109.4C232.611 108.853 232.474 108.437 232.201 108.15C231.934 107.857 231.571 107.71 231.111 107.71C230.638 107.71 230.261 107.863 229.981 108.17C229.701 108.47 229.561 108.907 229.561 109.48V112.5H228.651V107.02H229.561V107.81C229.741 107.523 229.981 107.303 230.281 107.15C230.588 106.997 230.924 106.92 231.291 106.92C231.751 106.92 232.158 107.023 232.511 107.23C232.864 107.437 233.128 107.74 233.301 108.14C233.454 107.753 233.708 107.453 234.061 107.24C234.414 107.027 234.808 106.92 235.241 106.92ZM243.954 109.55C243.954 109.723 243.944 109.907 243.924 110.1H239.544C239.577 110.64 239.76 111.063 240.094 111.37C240.434 111.67 240.844 111.82 241.324 111.82C241.717 111.82 242.044 111.73 242.304 111.55C242.57 111.363 242.757 111.117 242.864 110.81H243.844C243.697 111.337 243.404 111.767 242.964 112.1C242.524 112.427 241.977 112.59 241.324 112.59C240.804 112.59 240.337 112.473 239.924 112.24C239.517 112.007 239.197 111.677 238.964 111.25C238.73 110.817 238.614 110.317 238.614 109.75C238.614 109.183 238.727 108.687 238.954 108.26C239.18 107.833 239.497 107.507 239.904 107.28C240.317 107.047 240.79 106.93 241.324 106.93C241.844 106.93 242.304 107.043 242.704 107.27C243.104 107.497 243.41 107.81 243.624 108.21C243.844 108.603 243.954 109.05 243.954 109.55ZM243.014 109.36C243.014 109.013 242.937 108.717 242.784 108.47C242.63 108.217 242.42 108.027 242.154 107.9C241.894 107.767 241.604 107.7 241.284 107.7C240.824 107.7 240.43 107.847 240.104 108.14C239.784 108.433 239.6 108.84 239.554 109.36H243.014ZM244.815 109.74C244.815 109.18 244.928 108.69 245.155 108.27C245.381 107.843 245.691 107.513 246.085 107.28C246.485 107.047 246.931 106.93 247.425 106.93C247.851 106.93 248.248 107.03 248.615 107.23C248.981 107.423 249.261 107.68 249.455 108V105.1H250.375V112.5H249.455V111.47C249.275 111.797 249.008 112.067 248.655 112.28C248.301 112.487 247.888 112.59 247.415 112.59C246.928 112.59 246.485 112.47 246.085 112.23C245.691 111.99 245.381 111.653 245.155 111.22C244.928 110.787 244.815 110.293 244.815 109.74ZM249.455 109.75C249.455 109.337 249.371 108.977 249.205 108.67C249.038 108.363 248.811 108.13 248.525 107.97C248.245 107.803 247.935 107.72 247.595 107.72C247.255 107.72 246.945 107.8 246.665 107.96C246.385 108.12 246.161 108.353 245.995 108.66C245.828 108.967 245.745 109.327 245.745 109.74C245.745 110.16 245.828 110.527 245.995 110.84C246.161 111.147 246.385 111.383 246.665 111.55C246.945 111.71 247.255 111.79 247.595 111.79C247.935 111.79 248.245 111.71 248.525 111.55C248.811 111.383 249.038 111.147 249.205 110.84C249.371 110.527 249.455 110.163 249.455 109.75Z" fill="#D9D9D9"/>
<path d="M91.4716 77.7551C96.2149 88.5547 87.6471 103.902 72.3348 112.035C57.9763 119.661 42.7859 118.234 37.0383 109.122C42.6846 114.233 55.0164 112.887 66.6729 105.38C79.9312 96.8415 87.2953 83.5658 83.121 75.728C78.9468 67.8901 64.8149 68.4582 51.5566 76.9968C44.2919 81.6753 38.7969 87.7761 36 93.6253C38.73 85.8211 45.6414 77.9799 55.1579 72.9256C70.4701 64.7931 86.7283 66.9554 91.4716 77.7551Z" fill="#20ADE5"/>
<path d="M77.4951 92.7545L66.7615 72.3105L46.9367 110.07C47.721 110.055 48.5403 109.997 49.3923 109.894C52.9925 109.458 57.017 108.224 61.1137 106.184L66.7615 95.4269L69.5824 100.8C72.7543 98.2944 75.4262 95.5393 77.4951 92.7545Z" fill="#20ADE5"/>
<path d="M84.3203 105.754L96 128H83.8632L75.7124 112.475C78.9242 110.514 81.8171 108.237 84.3203 105.754Z" fill="#20ADE5"/>
<path d="M43.317 116.964L37.523 128H49.6597L54.3538 119.059C53.3187 119.072 52.3022 119.036 51.3085 118.95C48.4532 118.705 45.7428 118.048 43.317 116.964Z" fill="#20ADE5"/>
</g>
<defs>
<filter id="filter0_d_4_74" x="-4" y="0" width="317" height="222" filterUnits="userSpaceOnUse" color-interpolation-filters="sRGB">
<feFlood flood-opacity="0" result="BackgroundImageFix"/>
<feColorMatrix in="SourceAlpha" type="matrix" values="0 0 0 0 0 0 0 0 0 0 0 0 0 0 0 0 0 0 127 0" result="hardAlpha"/>
<feOffset dy="4"/>
<feGaussianBlur stdDeviation="2"/>
<feComposite in2="hardAlpha" operator="out"/>
<feColorMatrix type="matrix" values="0 0 0 0 0 0 0 0 0 0 0 0 0 0 0 0 0 0 0.1 0"/>
<feBlend mode="normal" in2="BackgroundImageFix" result="effect1_dropShadow_4_74"/>
<feBlend mode="normal" in="SourceGraphic" in2="effect1_dropShadow_4_74" result="shape"/>
</filter>
</defs>
</svg>
